<?xml version="1.0" encoding="UTF-8"?>
<svg width="29px" height="40px" viewBox="0 0 29 40" version="1.1" xmlns="http://www.w3.org/2000/svg" xmlns:xlink="http://www.w3.org/1999/xlink">
    <!-- Generator: Sketch 47.1 (45422) - http://www.bohemiancoding.com/sketch -->
    <title>white_mark</title>
    <desc>Created with Sketch.</desc>
    <defs>
        <polygon id="path-1" points="8.06455599e-05 39.450297 28.9772816 39.450297 28.9772816 0.274036628 8.06455599e-05 0.274036628"></polygon>
    </defs>
    <g id="Symbols" stroke="none" stroke-width="1" fill="none" fill-rule="evenodd">
        <g id="footer" transform="translate(-291.000000, -100.000000)">
            <g id="white_mark" transform="translate(291.000000, 100.000000)">
                <g id="Group-3">
                    <mask id="mask-2" fill="white">
                        <use xlink:href="#path-1"></use>
                    </mask>
                    <g id="Clip-2"></g>
                    <path d="M26.3974325,5.1795953 L26.3839136,27.6782712 L17.7588811,15.6287783 L26.3974325,5.1795953 Z M13.4074981,15.6407849 L3.3528462,21.4765702 L5.95578999,11.8089604 L13.4074981,15.6407849 Z M8.36440017,10.1137411 L23.6086044,4.48149656 L15.7941402,13.9341308 L8.36440017,10.1137411 Z M15.0027236,17.7287919 L16.3884067,35.159534 L3.54548996,24.3793116 L15.0027236,17.7287919 Z M25.830767,31.3562967 L19.0296539,35.8473414 L17.7785961,20.1078164 L25.830767,31.3562967 Z M28.9767183,1.56331807 C28.976155,1.52272429 28.9739019,1.48155876 28.9693956,1.44210847 L28.9631994,1.39636899 C28.9586931,1.36206438 28.952497,1.32890327 28.944611,1.29288343 L28.9350351,1.2517179 C28.9254593,1.21455458 28.9136303,1.17681951 28.8995481,1.13679747 L28.8927887,1.11564296 C28.8747636,1.06933175 28.8550485,1.02359227 28.8319538,0.97842454 C28.810549,0.936115526 28.7857644,0.894949998 28.75929,0.854927958 L28.7378851,0.824053812 C28.7176068,0.795466641 28.6962019,0.767451212 28.6731072,0.739435784 L28.6415632,0.702844204 C28.6201584,0.67883098 28.5976269,0.655961243 28.5683361,0.627945814 C28.5576336,0.617654432 28.5469312,0.606791307 28.5351022,0.597071669 L28.5170771,0.579919366 C28.5001785,0.56562578 28.4827166,0.552475681 28.4517359,0.5290342 C28.4444132,0.523316766 28.4365272,0.517027588 28.4218818,0.506164463 C28.3807619,0.478149034 28.3390787,0.451848836 28.2906362,0.425548638 C28.2495163,0.403250644 28.2067066,0.383811368 28.1650234,0.366659065 L28.1317896,0.354652453 C28.0974291,0.341502354 28.0619421,0.330639228 28.0264551,0.320347846 L27.9875884,0.310628208 C27.9526647,0.302052057 27.9171777,0.295191135 27.8732414,0.288330214 L27.8450771,0.28432801 C27.8005775,0.278610576 27.7560779,0.275180115 27.7025658,0.274036628 C27.655813,0.275180115 27.608497,0.275751859 27.5600544,0.280897549 L27.5211877,0.286614984 C27.4868273,0.290617188 27.4535934,0.296334622 27.4175431,0.303767287 L27.3736068,0.314058669 C27.340373,0.32263482 27.3071391,0.333497945 27.273342,0.344361071 L27.2547535,0.350078505 L4.68614375,8.68781301 C4.67713117,8.69124347 4.66924517,8.69524568 4.65910603,8.69924788 C4.62868859,8.71182624 4.59939773,8.72383285 4.56109429,8.74327213 L4.52786043,8.76042443 C4.49518985,8.77757673 4.46308256,8.79644427 4.42872213,8.81874226 L4.40675398,8.83303585 C4.36676068,8.86047953 4.32789396,8.88963845 4.29522339,8.91879736 L4.28114124,8.93137572 C4.24903395,8.95996289 4.21748994,8.99026529 4.18876236,9.02228292 L4.16397779,9.05029835 C4.14144636,9.07659855 4.11891492,9.10404223 4.09751006,9.13320115 L4.06934577,9.17322319 C4.05188391,9.1983799 4.03498534,9.22525184 4.01921333,9.25269553 C4.01020076,9.26870434 4.00118819,9.28414141 3.99161233,9.3024372 L3.97865675,9.32587869 C3.97020747,9.34131576 3.96344804,9.35789632 3.95668861,9.37390513 L3.93190403,9.43279471 C3.91275231,9.48082116 3.89641702,9.52941935 3.88346145,9.57801754 L0.0446685658,23.8372988 C0.0300231344,23.8921862 0.0198839895,23.948217 0.011997988,24.0059631 L0.00749170144,24.0436982 C-0.00433730084,24.1563316 -0.00208415754,24.2695368 0.0148144171,24.3815986 L0.0204472754,24.4153314 C0.0294598485,24.4673601 0.0412888508,24.5182452 0.059877283,24.5799935 C0.0767758577,24.6331657 0.0970541473,24.6846226 0.120712152,24.7360795 L0.133667726,24.7623797 L0.298710472,24.6897683 L0.146060014,24.7869646 C0.15338273,24.8024017 0.160705445,24.817267 0.169154733,24.8332759 C0.176477448,24.8452825 0.183800164,24.8561456 0.195629166,24.8732979 C0.209711312,24.8967394 0.224920029,24.9196091 0.240692032,24.9419071 C0.260970322,24.971066 0.282938469,24.9990815 0.305469902,25.0265251 C0.320678619,25.0448209 0.336450622,25.0631167 0.352222625,25.080269 C0.379260345,25.1094279 0.407424636,25.1357281 0.438968642,25.1648871 C0.447981215,25.174035 0.457557074,25.1831828 0.466569647,25.1906155 L17.0953304,39.148588 L17.1156087,39.1640251 C17.1646146,39.2034754 17.2175634,39.2400669 17.2705123,39.2715128 L17.29755,39.2869499 C17.3544419,39.3189675 17.4147135,39.346983 17.4766749,39.3698527 L17.5008962,39.3790006 C17.5651108,39.4012986 17.6298887,39.4184509 17.69354,39.4298858 L17.7143815,39.4327445 C17.7876087,39.4447511 17.8540764,39.4504685 17.9188543,39.4504685 L17.9346263,39.4504685 C17.9639172,39.4498968 17.993208,39.4487533 18.0224989,39.4458946 C18.036581,39.4447511 18.0500999,39.4430358 18.0743212,39.4390336 L18.1210739,39.4327445 C18.2309146,39.4150204 18.3385022,39.3830028 18.4393304,39.3372633 L18.4708744,39.3229697 C18.5294561,39.2949543 18.5801519,39.2663671 18.6252147,39.2366365 L28.3728759,32.7999489 C28.383015,32.793088 28.3931542,32.7850836 28.4010402,32.7787944 L28.4280779,32.7604986 C28.4404702,32.7519224 28.4522992,32.7422028 28.4635649,32.7324832 L28.5159505,32.6896024 C28.5514375,32.6581565 28.5857979,32.6249954 28.6201584,32.5878321 C28.6545188,32.5495253 28.6860628,32.510075 28.715917,32.4677659 L28.7305624,32.445468 C28.7536571,32.4117351 28.7744987,32.3780022 28.7942137,32.3425541 L28.8128021,32.3065343 C28.8308273,32.2728014 28.8465993,32.2379251 28.8640611,32.1950443 L28.8747636,32.1687441 C28.8922254,32.1224329 28.9074341,32.0749782 28.920953,32.0206626 C28.9322187,31.9754948 28.940668,31.9291836 28.9468641,31.8828724 L28.9519337,31.8388482 C28.9553134,31.8028283 28.9575666,31.7662368 28.9586931,31.7313604 L28.960383,31.7107776 L28.9772816,1.58275735 L28.9767183,1.56331807 Z" id="Fill-1" fill="#FFFFFF" mask="url(#mask-2)"></path>
                </g>
            </g>
        </g>
    </g>
</svg>